<svg xmlns="http://www.w3.org/2000/svg" xml:space="preserve" width="306" height="344.39" version="1.1" shape-rendering="geometricPrecision" text-rendering="geometricPrecision" image-rendering="optimizeQuality" fill-rule="evenodd" clip-rule="evenodd"
viewBox="170 0 306 344.39"
 xmlns:xlink="http://www.w3.org/1999/xlink">
 <path fill="#ffffff" fill-rule="nonzero" d="M304.17 104.58l0 122.38 0 23.3 -24.81 0 35.4 35.4 35.4 -35.4 -23.1 0 0 -23.3 0 -186.59 33 0 0 80.86c5.54,-6.74 12.38,-11.84 20.51,-15.31 8.12,-3.47 17.24,-5.2 27.35,-5.2 14.27,0 26.46,3.17 36.57,9.51 10.11,6.35 17.74,15.26 22.89,26.76 5.35,11.89 8.03,25.37 8.03,40.43 0,7.33 -0.7,14.42 -2.09,21.26 -1.38,6.84 -3.37,13.13 -5.94,18.88 -5.15,11.49 -12.78,20.41 -22.89,26.75 -10.11,6.35 -22.3,9.52 -36.57,9.52 -7.95,0 -15.25,-1.02 -21.9,-3.07l-51.14 51.15 -20.12 20.11 -20.12 -20.11 -50.07 -50.08c-5.64,1.53 -11.83,2.3 -18.59,2.3 -17.84,0 -31.67,-5.06 -41.48,-15.17 -9.81,-10.11 -14.71,-24.87 -14.71,-44.3l0 -90.08 32.7 0 0 83.55c0,13.08 2.73,22.69 8.18,28.83 5.45,6.15 13.62,9.22 24.52,9.22 11.7,0 20.66,-3.37 26.91,-10.11 6.24,-6.74 9.36,-16.55 9.36,-29.43l0 -82.06 32.71 0zm131.4 100.49c3.17,-7.53 4.76,-16.75 4.76,-27.65 0,-11.1 -1.59,-20.41 -4.76,-27.94 -3.17,-6.94 -7.83,-12.14 -13.97,-15.61 -6.15,-3.47 -13.48,-5.21 -22.01,-5.21 -12.28,0 -21.99,3.92 -29.13,11.75 -7.13,7.83 -10.7,18.88 -10.7,33.15l0 7.43c0,14.47 3.57,25.62 10.7,33.45 7.14,7.82 16.85,11.74 29.13,11.74 8.53,0 15.86,-1.78 22.01,-5.35 6.14,-3.57 10.8,-8.82 13.97,-15.76z"/>
</svg>
