<svg xmlns="http://www.w3.org/2000/svg" xml:space="preserve" width="1095px" height="344px" version="1.1" shape-rendering="geometricPrecision" text-rendering="geometricPrecision" image-rendering="optimizeQuality" fill-rule="evenodd" clip-rule="evenodd"
viewBox="0 0 1095 344.39"
 xmlns:xlink="http://www.w3.org/1999/xlink">
 <path fill="#ffffff" fill-rule="nonzero" d="M93.38 256.94c-14.66,0 -26.9,-2.38 -36.71,-7.13 -9.81,-4.76 -16.9,-11.9 -21.26,-21.41 -3.17,-6.94 -4.76,-15.06 -4.76,-24.38l32.11 0c0,5.55 0.99,10.21 2.97,13.98 4.37,9.51 13.78,14.27 28.25,14.27 14.47,0 23.39,-3.77 26.76,-11.3 0.99,-2.58 1.48,-5.06 1.48,-7.43 0,-2.78 -0.49,-5.35 -1.48,-7.73 -1.39,-2.98 -3.62,-5.35 -6.69,-7.14 -3.08,-1.78 -6.84,-3.32 -11.3,-4.61 -4.46,-1.29 -10.75,-2.72 -18.88,-4.31 -11.1,-2.57 -20.51,-5.99 -28.24,-10.25 -7.73,-4.27 -13.28,-10.16 -16.65,-17.69 -1.98,-4.56 -2.97,-9.91 -2.97,-16.06 0,-6.54 1.19,-12.29 3.56,-17.24 3.77,-8.13 10.31,-14.42 19.62,-18.88 9.32,-4.46 20.52,-6.69 33.6,-6.69 13.28,0 24.53,2.18 33.74,6.54 9.22,4.36 15.91,10.8 20.07,19.33 2.58,5.94 3.86,13.08 3.86,21.4l-31.21 0c0,-4.36 -0.79,-8.42 -2.38,-12.19 -1.98,-3.96 -5.1,-6.98 -9.36,-9.06 -4.27,-2.09 -9.37,-3.13 -15.32,-3.13 -12.08,0 -19.72,3.27 -22.89,9.82 -0.79,1.78 -1.19,4.06 -1.19,6.83 0,2.58 0.4,4.56 1.19,5.95 1.39,3.17 3.87,5.75 7.44,7.73 3.56,1.98 7.38,3.52 11.44,4.61 4.06,1.09 10.06,2.52 17.99,4.31 12.29,3.17 22.34,6.88 30.17,11.15 7.83,4.26 13.53,10.15 17.1,17.69 1.98,4.55 2.97,10 2.97,16.35 0,6.93 -1.19,13.37 -3.57,19.32 -4.16,8.92 -11.54,15.71 -22.15,20.36 -10.6,4.66 -23.04,6.99 -37.31,6.99z"/>
 <path fill="#ffffff" fill-rule="nonzero" d="M544.97 254.86c-15.85,0 -27.4,-3.72 -34.63,-11.15 -7.24,-7.43 -10.85,-19.47 -10.85,-36.12l0 -73.73 -22.6 0 0 -27.05 22.6 0 0 -35.08 32.7 0 0 35.08 41.32 0 0 27.05 -41.32 0 0 67.78c0,8.72 1.83,15.12 5.5,19.18 3.67,4.06 9.36,6.09 17.09,6.09 6.35,0 12.19,-0.79 17.54,-2.37l0 27.35c-9.31,1.98 -18.43,2.97 -27.35,2.97zm137.95 -34.19c2.57,-2.38 4.7,-5.25 6.39,-8.62 1.68,-3.37 2.72,-6.74 3.12,-10.11l32.7 0c-1.38,14.67 -7.13,26.76 -17.24,36.27 -6.54,5.75 -14.47,10.16 -23.78,13.23 -9.32,3.07 -19.53,4.61 -30.63,4.61 -17.04,0 -31.56,-3.37 -43.55,-10.11 -11.99,-6.74 -20.76,-16.25 -26.31,-28.54 -4.76,-10.7 -7.13,-23.39 -7.13,-38.05 0,-7.53 0.59,-14.37 1.78,-20.52 1.19,-6.14 2.97,-11.89 5.35,-17.24 5.55,-12.29 14.12,-21.8 25.72,-28.54 11.59,-6.74 25.51,-10.11 41.77,-10.11 16.25,0 30.17,3.37 41.77,10.11 11.59,6.74 20.06,16.15 25.42,28.24 2.97,6.74 5,13.78 6.09,21.11 1.09,7.33 1.63,16.05 1.63,26.16l-116.24 0c0.6,8.72 2.08,15.56 4.46,20.52 2.98,6.74 7.73,11.89 14.27,15.46 6.54,3.56 14.67,5.35 24.38,5.35 6.34,0 12.09,-0.8 17.24,-2.38 5.16,-1.59 9.42,-3.87 12.79,-6.84zm-31.22 -91.27c-18.63,0 -31.12,7.04 -37.46,21.11 -1.98,4.36 -3.27,9.02 -3.86,13.97l81.75 0c-0.59,-5.15 -1.78,-10.2 -3.56,-15.16 -3.18,-6.54 -7.83,-11.5 -13.98,-14.86 -6.14,-3.37 -13.77,-5.06 -22.89,-5.06zm161.43 -24.67c5.75,0 10.7,0.59 14.87,1.78l0 29.14c-4.36,-1 -9.32,-1.49 -14.87,-1.49 -12.68,0 -22.25,3.81 -28.69,11.44 -6.44,7.63 -9.66,18.68 -9.66,33.15l0 73.73 -33 0 0 -145.67 32.7 0 0 16.94c8.53,-12.68 21.41,-19.02 38.65,-19.02zm97.51 0c5.75,0 10.71,0.59 14.87,1.78l0 29.14c-4.36,-1 -9.32,-1.49 -14.87,-1.49 -12.68,0 -22.24,3.81 -28.68,11.44 -6.45,7.63 -9.67,18.68 -9.67,33.15l0 73.73 -33 0 0 -145.67 32.71 0 0 16.94c8.52,-12.68 21.4,-19.02 38.64,-19.02zm147.76 27.64c3.96,8.73 5.95,20.32 5.95,34.79l0 85.32 -33 0 0 -16.35c-10.51,13.28 -27.16,19.92 -49.95,19.92 -12.88,0 -23.78,-2.08 -32.7,-6.24 -8.92,-4.17 -15.16,-10.31 -18.73,-18.44 -2.58,-5.74 -3.87,-12.28 -3.87,-19.62 0,-7.33 1.19,-13.67 3.57,-19.03 4.96,-10.9 13.38,-18.38 25.27,-22.44 11.89,-4.06 27.25,-6.09 46.08,-6.09l30.33 0 0 -3.87c0,-3.77 -0.2,-6.89 -0.6,-9.36 -0.4,-2.48 -1.19,-5.01 -2.38,-7.59 -4.36,-9.51 -14.46,-14.27 -30.32,-14.27 -8.13,0 -14.77,1.09 -19.92,3.27 -5.15,2.19 -8.82,5.65 -11,10.41 -1.39,3.57 -2.08,6.84 -2.08,9.81l-33.3 0c0,-8.32 1.39,-15.36 4.16,-21.11 8.53,-19.02 29.14,-28.54 61.84,-28.54 16.06,0 29.09,2.38 39.1,7.14 10.01,4.75 17.19,12.19 21.55,22.29zm-30.62 77.6c2.38,-5.75 3.57,-12.49 3.57,-20.22l0 -1.78 -28.25 0c-10.9,0 -19.92,0.89 -27.05,2.67 -7.14,1.79 -11.79,5.06 -13.97,9.82 -1.19,2.37 -1.79,5.15 -1.79,8.32 0,3.17 0.6,6.14 1.79,8.92 1.98,4.16 5.45,7.23 10.4,9.21 4.96,1.99 10.8,2.98 17.54,2.98 9.52,0 17.44,-1.69 23.79,-5.06 6.34,-3.37 11,-8.32 13.97,-14.86z"/>
 <path fill="#ffffff" fill-rule="nonzero" d="M304.17 104.58l0 122.38 0 23.3 -24.81 0 35.4 35.4 35.4 -35.4 -23.1 0 0 -23.3 0 -186.59 33 0 0 80.86c5.54,-6.74 12.38,-11.84 20.51,-15.31 8.12,-3.47 17.24,-5.2 27.35,-5.2 14.27,0 26.46,3.17 36.57,9.51 10.11,6.35 17.74,15.26 22.89,26.76 5.35,11.89 8.03,25.37 8.03,40.43 0,7.33 -0.7,14.42 -2.09,21.26 -1.38,6.84 -3.37,13.13 -5.94,18.88 -5.15,11.49 -12.78,20.41 -22.89,26.75 -10.11,6.35 -22.3,9.52 -36.57,9.52 -7.95,0 -15.25,-1.02 -21.9,-3.07l-51.14 51.15 -20.12 20.11 -20.12 -20.11 -50.07 -50.08c-5.64,1.53 -11.83,2.3 -18.59,2.3 -17.84,0 -31.67,-5.06 -41.48,-15.17 -9.81,-10.11 -14.71,-24.87 -14.71,-44.3l0 -90.08 32.7 0 0 83.55c0,13.08 2.73,22.69 8.18,28.83 5.45,6.15 13.62,9.22 24.52,9.22 11.7,0 20.66,-3.37 26.91,-10.11 6.24,-6.74 9.36,-16.55 9.36,-29.43l0 -82.06 32.71 0zm131.4 100.49c3.17,-7.53 4.76,-16.75 4.76,-27.65 0,-11.1 -1.59,-20.41 -4.76,-27.94 -3.17,-6.94 -7.83,-12.14 -13.97,-15.61 -6.15,-3.47 -13.48,-5.21 -22.01,-5.21 -12.28,0 -21.99,3.92 -29.13,11.75 -7.13,7.83 -10.7,18.88 -10.7,33.15l0 7.43c0,14.47 3.57,25.62 10.7,33.45 7.14,7.82 16.85,11.74 29.13,11.74 8.53,0 15.86,-1.78 22.01,-5.35 6.14,-3.57 10.8,-8.82 13.97,-15.76z"/>
</svg>
