<?xml version="1.0" encoding="utf-8"?>
<svg xmlns="http://www.w3.org/2000/svg" version="1.1" shape-rendering="geometricPrecision" text-rendering="geometricPrecision" image-rendering="optimizeQuality" fill-rule="evenodd" clip-rule="evenodd" viewBox="0 0 1024 1024">
  <defs>
    <clipPath id="id0">
      <path d="M82.6 201.64c-8.11,-3.82 -15.82,-8.32 -22.68,-13.94 -2.02,-2.47 -4.88,-7.19 -0.71,-9.37 3.43,0.84 7.14,1.6 11.11,2.25 7.58,1.26 16.17,2.22 25.47,2.82 -9.32,5.19 -14.55,11.32 -14.43,13.66 0.02,0.37 0.64,2.15 1.24,4.58z"/>
    </clipPath>
    <clipPath id="id1">
      <path d="M38.31 162.78l-0.15 -0.24 0.28 -0.03c-0.06,-0.14 -0.1,0.02 -0.13,0.27zm-0.22 -0.35c-5.48,-8.52 -8.44,-15.16 -11.92,-24.99 0.05,-0.25 -0.97,-2.95 -0.98,-3.19 -0.33,-6.07 7.14,-11.55 13.94,-13.27 4.5,1.25 9.58,2.35 15.15,3.27 9.75,1.61 18.46,2.62 30.99,3.29 -28.46,5.67 -45.41,18.87 -46.25,27.24l-0.93 7.65z"/>
    </clipPath>
    <clipPath id="id2">
      <path d="M22.59 101.79c0.49,-8.4 0.96,-16.64 3.41,-24.36 0.04,-0.1 0.07,-0.19 0.09,-0.28 2.46,-6.34 12.58,-13.77 19.63,-14.57 4.76,2.23 10.83,3.93 18.09,5.27 6.03,1.13 12.93,2.05 20.48,2.7 3.09,0.26 4.79,0.38 8.09,0.56 -20.55,4.33 -34.79,7.2 -49.43,23.09 -3.6,3.91 -17.71,5.12 -19.52,7.55l-0.84 0.04z"/>
    </clipPath>
    <clipPath id="id3">
      <path d="M42.58 45.83c6.66,-8.51 14.7,-15.94 23.82,-21.98 4.51,-2.26 11.55,-4.25 20.49,-5.06 16.66,-1.5 20.65,10.97 -5.27,14.93 -18.91,2.89 -33.15,7.24 -39.04,12.11z"/>
    </clipPath>
  </defs>
  <g id="Capa_x0020_1" transform="scale(4.3)">
    <rect fill="none" width="1024" height="1024"/>
    <g id="_2457035136016" style="" transform="matrix(1.081885, 0, 0, 1.121088, -11.606034, -6.976696)">
      <path fill="#282829" d="M82.6 201.64c-8.11,-3.82 -15.82,-8.32 -22.68,-13.94 -2.02,-2.47 -4.88,-7.19 -0.71,-9.37 3.43,0.84 7.14,1.6 11.11,2.25 7.58,1.26 16.17,2.22 25.47,2.82 -9.32,5.19 -14.55,11.32 -14.43,13.66 0.02,0.37 0.64,2.15 1.24,4.58z"/>
      <g clip-path="url(#id0)">
        <g>
          <circle fill="none" transform="matrix(1.01327 -0.0299762 0.0532689 0.993518 130.008 108.521)" r="103.3"/>
        </g>
      </g>
      <path fill="none" d="M82.6 201.64c-8.11,-3.82 -15.82,-8.32 -22.68,-13.94 -2.02,-2.47 -4.88,-7.19 -0.71,-9.37 3.43,0.84 7.14,1.6 11.11,2.25 7.58,1.26 16.17,2.22 25.47,2.82 -9.32,5.19 -14.55,11.32 -14.43,13.66 0.02,0.37 0.64,2.15 1.24,4.58z"/>
      <path fill="#44332C" d="M38.31 162.78l-0.15 -0.24 0.28 -0.03c-0.06,-0.14 -0.1,0.02 -0.13,0.27zm-0.22 -0.35c-5.48,-8.52 -8.44,-15.16 -11.92,-24.99 0.05,-0.25 -0.97,-2.95 -0.98,-3.19 -0.33,-6.07 7.14,-11.55 13.94,-13.27 4.5,1.25 9.58,2.35 15.15,3.27 9.75,1.61 18.46,2.62 30.99,3.29 -28.46,5.67 -45.41,18.87 -46.25,27.24l-0.93 7.65z"/>
      <g clip-path="url(#id1)">
        <g>
          <circle fill="none" transform="matrix(1.01327 -0.0299762 0.0532689 0.993518 130.008 108.521)" r="103.3"/>
        </g>
      </g>
      <path fill="none" d="M38.31 162.78l-0.15 -0.24 0.28 -0.03c-0.06,-0.14 -0.1,0.02 -0.13,0.27zm-0.22 -0.35c-5.48,-8.52 -8.44,-15.16 -11.92,-24.99 0.05,-0.25 -0.97,-2.95 -0.98,-3.19 -0.33,-6.07 7.14,-11.55 13.94,-13.27 4.5,1.25 9.58,2.35 15.15,3.27 9.75,1.61 18.46,2.62 30.99,3.29 -28.46,5.67 -45.41,18.87 -46.25,27.24l-0.93 7.65z"/>
      <path fill="#5F7B43" d="M22.59 101.79c0.49,-8.4 0.96,-16.64 3.41,-24.36 0.04,-0.1 0.07,-0.19 0.09,-0.28 2.46,-6.34 12.58,-13.77 19.63,-14.57 4.76,2.23 10.83,3.93 18.09,5.27 6.03,1.13 12.93,2.05 20.48,2.7 3.09,0.26 4.79,0.38 8.09,0.56 -20.55,4.33 -34.79,7.2 -49.43,23.09 -3.6,3.91 -17.71,5.12 -19.52,7.55l-0.84 0.04z"/>
      <g clip-path="url(#id2)">
        <g>
          <circle fill="none" transform="matrix(1.01327 -0.0299762 0.0532689 0.993518 130.105 108.909)" r="103.3"/>
        </g>
      </g>
      <path fill="none" d="M22.59 101.79c0.49,-8.4 0.96,-16.64 3.41,-24.36 0.04,-0.1 0.07,-0.19 0.09,-0.28 2.46,-6.34 12.58,-13.77 19.63,-14.57 4.76,2.23 10.83,3.93 18.09,5.27 6.03,1.13 12.93,2.05 20.48,2.7 3.09,0.26 4.79,0.38 8.09,0.56 -20.55,4.33 -34.79,7.2 -49.43,23.09 -3.6,3.91 -17.71,5.12 -19.52,7.55l-0.84 0.04z"/>
      <path fill="#307182" d="M42.58 45.83c6.66,-8.51 14.7,-15.94 23.82,-21.98 4.51,-2.26 11.55,-4.25 20.49,-5.06 16.66,-1.5 20.65,10.97 -5.27,14.93 -18.91,2.89 -33.15,7.24 -39.04,12.11z"/>
      <g clip-path="url(#id3)">
        <g>
          <circle fill="none" transform="matrix(1.01327 -0.0299762 0.0532689 0.993518 130.246 108.387)" r="103.3"/>
        </g>
      </g>
      <path fill="none" d="M42.58 45.83c6.66,-8.51 14.7,-15.94 23.82,-21.98 4.51,-2.26 11.55,-4.25 20.49,-5.06 16.66,-1.5 20.65,10.97 -5.27,14.93 -18.91,2.89 -33.15,7.24 -39.04,12.11z"/>
      <path fill="#66C2DB" d="M183.45 34.88c4.41,4.47 8.43,9.35 12,14.58 2.04,2.92 1.03,5.5 -1.76,6.84 -14.54,5.5 -40.26,9.63 -69.74,10.5 -46.02,1.36 -83.77,-5.72 -84.31,-15.83 -0.03,-0.47 0.03,-0.93 0.16,-1.39l0 0 0.04 -0.06 0.05 -0.06 0.04 -0.06 0.04 -0.06 0.04 -0.06 0.05 -0.06 0.04 -0.06 0.04 -0.06 0.05 -0.06c0.3,-0.42 0.6,-0.84 0.91,-1.25l0.04 -0.06 0.05 -0.06 0.04 -0.06 0.04 -0.06 0.05 -0.05 0.04 -0.06 0.05 -0.06 0.04 -0.06 0.05 -0.06 0.04 -0.06 0.04 -0.06 0.05 -0.06 0.04 -0.06 0.05 -0.05c0.25,-0.34 0.51,-0.67 0.76,-1l0.05 -0.05 0.04 -0.06 0.05 -0.06 0 0c0.51,-0.42 0.83,-0.85 1.01,-1.29 5.35,-6.6 11.55,-12.53 18.43,-17.62 -0.78,0.89 -1.17,1.79 -1.12,2.71 0.39,7.26 28.03,12.34 61.74,11.34 19.86,-0.58 37.4,-3.15 48.37,-6.65 5.55,-1.76 8.99,-1.9 12.4,0.59z"/>
      <path fill="#92C11D" d="M211.92 88.9c0.92,4.75 1.53,9.62 1.8,14.58 0.95,5.76 -2.74,8.7 -6.67,9.98 -18.92,5.41 -47.68,9.35 -80.04,10.31 -55.45,1.64 -101.31,-6.08 -105.47,-17.43l0 -0.06 0.01 -0.8 0 -0.06 0 -0.06 0 -0.05 0 -0.06 0 -0.06 0.03 -1.19 0 -0.06 0 -0.06 0 -0.06 0.01 -0.05 0 -0.06 0 -0.06 0.04 -0.96 0.09 -1.8c0.52,-8.53 2.1,-16.78 4.65,-24.61 1.25,11.31 45.34,19.16 99.03,17.57 30.7,-0.91 57.94,-4.71 75.64,-9.91 0.56,-0.15 1.5,-0.47 2,-0.56 4.96,-0.94 7.46,0.75 8.44,3.83 0.2,0.62 0.28,1.01 0.44,1.69z"/>
      <path fill="#915B41" d="M206.58 147.26c-3.11,7.76 -7.16,15.03 -12,21.65 -2.17,2.97 -3.2,3.34 -6.81,4.16 -15.58,3.51 -35.69,5.91 -57.77,6.53 -44.81,1.27 -82.51,-5.23 -90.57,-15.05l-5.4 -8.55c-3.72,-6.83 -6.68,-14.1 -8.79,-21.73l0.24 0c1.07,11.44 47.02,19.35 103.04,17.69 29.73,-0.88 56.35,-4.28 74.76,-8.99 3.63,-0.91 4.47,1.44 3.3,4.29z"/>
      <path fill="#5E331D" d="M167 198.87c-30.5,13.83 -72.85,14.18 -100.1,-6.06 27.92,12.03 71.17,11.64 99.84,4.48 2.72,-0.75 2.24,0.31 0.26,1.58z"/>
    </g>
  </g>
</svg>